<?xml version="1.0" standalone="no"?>
<!DOCTYPE svg PUBLIC "-//W3C//DTD SVG 20010904//EN"
 "http://www.w3.org/TR/2001/REC-SVG-20010904/DTD/svg10.dtd">
<svg version="1.0" xmlns="http://www.w3.org/2000/svg"
 width="512.000000pt" height="512.000000pt" viewBox="0 0 512.000000 512.000000"
 preserveAspectRatio="xMidYMid meet">

<g transform="translate(0.000000,512.000000) scale(0.100000,-0.100000)"
fill="#000000" stroke="none">
<path d="M3390 5114 c-14 -2 -65 -9 -114 -15 -142 -18 -353 -69 -746 -182
-201 -58 -417 -117 -481 -131 -293 -65 -456 -49 -527 54 -46 66 -110 73 -148
15 -15 -23 -16 -46 -11 -193 4 -102 14 -204 26 -263 54 -265 168 -488 316
-616 l55 -47 0 -247 0 -247 -68 -88 c-37 -49 -96 -124 -130 -167 -62 -78 -73
-108 -52 -147 5 -10 63 -50 129 -89 65 -40 123 -77 128 -84 5 -7 20 -48 33
-92 13 -44 28 -88 33 -97 18 -29 52 -37 128 -31 90 7 140 -11 164 -56 l15 -31
-99 -50 c-103 -51 -121 -69 -121 -117 0 -83 121 -223 226 -263 102 -38 159
-36 337 8 l157 39 0 -129 0 -130 -46 -60 -46 -60 48 7 c328 42 577 102 846
204 124 46 330 139 413 185 l60 33 5 64 c4 57 10 70 51 124 77 100 232 341
308 480 165 303 285 643 337 960 25 152 26 454 1 578 -62 306 -211 507 -424
570 -68 20 -76 25 -104 69 -65 101 -191 185 -334 223 -58 16 -310 29 -365 19z"/>
<path d="M1305 2535 c-16 -15 -25 -36 -25 -55 0 -19 9 -40 25 -55 23 -24 31
-25 135 -25 104 0 112 1 135 25 16 15 25 36 25 55 0 19 -9 40 -25 55 -23 24
-31 25 -135 25 -104 0 -112 -1 -135 -25z"/>
<path d="M760 2307 c-20 -10 -46 -69 -154 -356 l-129 -344 122 -531 122 -531
-1 -272 0 -273 381 0 381 0 -6 83 c-4 45 -13 165 -21 267 l-14 185 34 51 c79
121 150 296 181 448 21 103 30 413 14 471 -18 64 -87 139 -147 159 -97 33
-175 15 -248 -59 -64 -63 -75 -100 -75 -249 0 -103 -2 -118 -20 -136 -23 -23
-49 -26 -73 -7 -9 6 -45 97 -80 202 l-63 190 52 210 c29 116 53 222 54 236 0
14 -7 49 -16 78 -37 127 -200 225 -294 178z"/>
<path d="M1463 2137 c-88 -88 -103 -108 -103 -135 0 -44 38 -82 82 -82 27 0
47 15 135 103 88 88 103 108 103 135 0 22 -9 41 -25 57 -16 16 -35 25 -57 25
-27 0 -47 -15 -135 -103z"/>
<path d="M1785 1975 c-24 -23 -25 -31 -25 -135 0 -104 1 -112 25 -135 15 -16
36 -25 55 -25 19 0 40 9 55 25 24 23 25 31 25 135 0 104 -1 112 -25 135 -15
16 -36 25 -55 25 -19 0 -40 -9 -55 -25z"/>
<path d="M3914 1789 c-26 -43 -216 -132 -424 -198 -317 -100 -786 -191 -990
-191 l-80 0 -30 -47 c-46 -73 -163 -306 -209 -417 -113 -271 -181 -590 -181
-846 l0 -90 440 0 440 0 0 383 c0 289 4 398 14 448 41 191 189 357 374 421 88
30 249 32 332 4 93 -31 167 -76 230 -138 68 -68 102 -120 139 -217 l26 -66 3
-417 3 -418 241 0 240 0 -5 278 c-5 295 -17 393 -72 614 -72 283 -221 592
-394 816 -71 92 -84 102 -97 81z"/>
</g>
</svg>
