<?xml version="1.0" standalone="no"?>
<!DOCTYPE svg PUBLIC "-//W3C//DTD SVG 20010904//EN"
 "http://www.w3.org/TR/2001/REC-SVG-20010904/DTD/svg10.dtd">
<svg version="1.0" xmlns="http://www.w3.org/2000/svg"
 width="512.000000pt" height="512.000000pt" viewBox="0 0 512.000000 512.000000"
 preserveAspectRatio="xMidYMid meet">
<metadata>
Created by potrace 1.16, written by Peter Selinger 2001-2019
</metadata>
<g transform="translate(0.000000,512.000000) scale(0.100000,-0.100000)"
fill="#000000" stroke="none">
<path d="M2504 4946 c-18 -14 -19 -33 -24 -442 l-5 -428 -75 -12 c-307 -48
-577 -182 -808 -400 -453 -426 -597 -1095 -361 -1683 193 -483 648 -843 1169
-925 l75 -12 5 -428 c5 -409 6 -428 24 -442 29 -21 92 -18 116 6 19 19 20 33
20 520 0 336 3 500 10 500 6 0 36 -13 68 -29 68 -34 216 -83 327 -108 114 -26
454 -26 572 0 442 97 788 354 1005 747 50 90 98 214 98 253 0 43 -23 74 -62
82 -26 6 -49 -1 -132 -44 -149 -76 -229 -95 -406 -95 -175 0 -263 19 -415 94
-593 290 -715 1074 -241 1546 92 92 176 152 282 200 78 37 104 63 104 106 0
84 -121 118 -443 125 -287 7 -448 -22 -669 -117 -50 -22 -93 -40 -95 -40 -2 0
-3 225 -3 500 0 487 -1 501 -20 520 -24 24 -87 27 -116 6z m971 -1058 c-64
-45 -234 -227 -280 -298 -130 -203 -189 -405 -189 -650 -1 -164 18 -263 78
-411 105 -259 314 -481 562 -595 217 -101 502 -130 729 -75 44 11 82 17 84 15
12 -11 -139 -212 -217 -288 -153 -151 -310 -249 -508 -315 -149 -50 -255 -64
-444 -58 -214 6 -346 38 -527 127 l-123 60 0 1160 0 1159 110 55 c200 100 348
134 595 135 l160 0 -30 -21z m-995 -1329 l0 -1341 -57 7 c-145 18 -402 120
-537 213 -309 213 -523 544 -581 902 -19 122 -19 318 0 440 58 358 274 692
581 902 153 104 438 213 567 217 l27 1 0 -1341z"/>
<path d="M822 4377 c-15 -16 -22 -36 -22 -62 0 -38 9 -48 258 -297 252 -252
258 -258 298 -258 54 0 84 31 84 85 0 38 -9 48 -258 297 -252 252 -258 258
-298 258 -29 0 -46 -6 -62 -23z"/>
<path d="M4347 3668 c-9 -7 -48 -79 -86 -160 -39 -82 -74 -148 -78 -148 -27
-1 -304 -49 -313 -55 -19 -12 -37 -64 -32 -91 2 -13 55 -77 117 -142 l113
-118 -24 -145 c-30 -184 -30 -200 1 -229 39 -37 76 -29 218 50 70 38 132 70
137 70 5 0 67 -31 136 -70 146 -81 188 -89 223 -44 26 34 26 48 -4 223 l-24
144 114 120 c105 109 115 122 115 157 0 69 -16 78 -195 107 l-160 25 -65 142
c-36 77 -73 149 -82 158 -21 21 -86 24 -111 6z m92 -353 c19 -42 45 -84 58
-95 15 -12 56 -23 113 -31 l89 -13 -70 -74 c-77 -83 -80 -93 -58 -219 6 -35 9
-67 6 -70 -3 -3 -39 13 -80 36 -41 23 -85 41 -97 41 -12 0 -56 -18 -97 -41
-41 -23 -77 -39 -80 -36 -3 3 0 35 6 70 22 125 19 134 -58 218 l-69 75 88 13
c57 8 98 19 113 31 13 11 39 53 58 95 19 41 36 75 39 75 3 0 20 -34 39 -75z"/>
<path d="M180 2620 c-27 -27 -27 -93 0 -120 19 -19 33 -20 380 -20 347 0 361
1 380 20 13 13 20 33 20 60 0 27 -7 47 -20 60 -19 19 -33 20 -380 20 -347 0
-361 -1 -380 -20z"/>
<path d="M1067 1113 c-137 -137 -255 -262 -262 -278 -34 -77 33 -144 109 -111
17 8 142 126 279 263 241 243 247 250 247 289 0 53 -31 84 -85 84 -38 0 -48
-9 -288 -247z"/>
</g>
</svg>
