<?xml version="1.0" standalone="no"?>
<!DOCTYPE svg PUBLIC "-//W3C//DTD SVG 20010904//EN"
 "http://www.w3.org/TR/2001/REC-SVG-20010904/DTD/svg10.dtd">
<svg version="1.0" xmlns="http://www.w3.org/2000/svg"
 width="512.000000pt" height="512.000000pt" viewBox="0 0 512.000000 512.000000"
 preserveAspectRatio="xMidYMid meet">

<g transform="translate(0.000000,512.000000) scale(0.100000,-0.100000)"
fill="#000000" stroke="none">
<path d="M3580 5105 c-223 -33 -413 -109 -604 -242 -58 -41 -248 -223 -679
-652 l-597 -596 632 -633 633 -632 72 54 c380 286 887 370 1336 221 56 -18
109 -36 118 -39 11 -5 57 39 164 156 179 197 237 273 304 398 103 194 153 402
153 630 0 224 -46 421 -145 614 -261 510 -827 805 -1387 721z"/>
<path d="M904 2818 c-664 -667 -704 -715 -803 -963 -171 -426 -111 -916 156
-1287 294 -408 801 -624 1298 -553 229 32 440 119 620 254 33 24 128 111 211
193 l151 149 -38 112 c-101 294 -104 625 -11 922 44 138 129 304 219 426 l45
62 -634 634 -634 633 -580 -582z"/>
<path d="M3695 2374 c-577 -121 -975 -599 -975 -1174 0 -245 77 -488 218 -689
61 -88 211 -235 297 -292 144 -96 347 -178 483 -195 l52 -7 0 1182 0 1181 -27
-1 c-16 -1 -37 -3 -48 -5z"/>
<path d="M4070 1199 l0 -1181 48 6 c230 33 482 166 657 347 104 108 156 180
219 307 82 162 119 324 119 522 0 198 -37 360 -119 522 -61 123 -114 198 -208
297 -167 174 -360 286 -591 342 -44 10 -90 19 -102 19 l-23 0 0 -1181z"/>
</g>
</svg>
