<?xml version="1.0" standalone="no"?>
<!DOCTYPE svg PUBLIC "-//W3C//DTD SVG 20010904//EN"
 "http://www.w3.org/TR/2001/REC-SVG-20010904/DTD/svg10.dtd">
<svg version="1.0" xmlns="http://www.w3.org/2000/svg"
 width="512.000000pt" height="512.000000pt" viewBox="0 0 512.000000 512.000000"
 preserveAspectRatio="xMidYMid meet">

<g transform="translate(0.000000,512.000000) scale(0.100000,-0.100000)"
fill="#000000" stroke="none">
<path d="M2380 5110 c-495 -69 -914 -368 -1125 -805 -53 -110 -89 -215 -117
-343 -30 -133 -30 -432 -1 -564 16 -76 17 -91 5 -125 -20 -56 -26 -162 -13
-222 36 -166 158 -291 318 -323 41 -8 57 -16 61 -31 11 -41 84 -180 133 -253
28 -43 86 -111 127 -153 l75 -76 -56 -105 -55 -105 -144 -7 c-382 -17 -695
-156 -968 -428 -202 -202 -339 -444 -411 -722 -37 -145 -49 -278 -49 -546 l0
-253 25 -24 24 -25 2351 0 2351 0 24 25 25 24 0 253 c-1 417 -39 610 -177 881
-181 354 -486 622 -846 742 -147 49 -243 66 -405 73 l-144 7 -56 105 -55 105
70 70 c38 39 93 104 122 145 50 70 132 223 143 267 4 15 19 23 61 31 160 32
282 157 318 323 13 60 7 166 -13 222 -12 34 -11 49 5 125 27 122 29 420 4 545
-117 581 -557 1025 -1135 1147 -111 24 -368 34 -472 20z m1023 -1284 c43 -17
93 -76 106 -123 14 -51 14 -648 0 -749 -22 -160 -96 -338 -192 -461 -48 -62
-114 -129 -120 -122 -3 2 -53 99 -112 214 -147 287 -177 336 -245 409 -86 92
-154 121 -280 121 -124 0 -192 -29 -278 -119 -67 -70 -98 -121 -247 -411 -59
-115 -110 -212 -112 -215 -7 -8 -108 104 -151 168 -86 126 -143 276 -162 423
-13 109 -13 692 0 741 14 50 55 97 105 119 38 18 86 19 848 19 656 0 814 -3
840 -14z m-1963 -643 c0 -104 3 -212 7 -242 l6 -54 -43 24 c-128 70 -167 252
-82 374 26 37 84 85 103 85 5 0 9 -84 9 -187z m2291 164 c114 -77 141 -257 55
-370 -27 -35 -96 -86 -117 -87 -3 0 -2 21 2 48 4 26 8 134 8 240 1 105 5 192
10 192 4 0 23 -10 42 -23z m-1072 -413 c63 -32 107 -87 184 -234 30 -58 207
-395 392 -750 185 -355 354 -677 376 -717 l38 -71 -103 -41 c-56 -23 -106 -41
-109 -41 -4 0 -63 112 -132 250 -72 144 -133 254 -144 260 -51 27 -121 -11
-121 -65 0 -14 54 -133 120 -265 l120 -240 -27 -11 c-181 -69 -489 -169 -590
-192 l-23 -5 0 409 0 410 -25 24 c-15 16 -36 25 -55 25 -19 0 -40 -9 -55 -25
l-25 -24 0 -410 0 -410 -92 25 c-123 32 -348 107 -525 175 -23 8 -21 13 97
249 66 132 120 251 120 265 0 54 -70 92 -121 65 -11 -6 -72 -117 -145 -261
-103 -207 -128 -250 -142 -244 -9 3 -59 22 -109 41 l-92 36 38 71 c22 40 191
362 376 717 185 355 362 692 392 750 30 58 73 128 94 156 47 63 121 104 189
104 30 0 65 -9 99 -26z m-1019 -1098 c0 -3 -81 -159 -180 -349 -99 -189 -180
-354 -180 -368 0 -13 7 -34 15 -46 29 -42 792 -327 1085 -405 121 -32 244 -31
375 4 289 78 1041 360 1070 401 8 12 15 33 15 46 0 14 -81 179 -180 368 -99
190 -180 346 -180 349 0 9 88 3 185 -11 553 -83 981 -506 1105 -1090 17 -79
22 -150 27 -338 l6 -237 -402 0 -401 0 0 175 c0 173 0 176 -25 200 -32 33 -78
33 -110 0 -25 -24 -25 -27 -25 -200 l0 -175 -1280 0 -1280 0 0 175 c0 173 0
176 -25 200 -15 16 -36 25 -55 25 -19 0 -40 -9 -55 -25 -25 -24 -25 -27 -25
-200 l0 -175 -400 0 -400 0 0 163 c1 335 38 528 146 756 188 398 558 678 984
746 84 13 190 19 190 11z"/>
<path d="M1890 3607 c-14 -7 -31 -25 -38 -39 -22 -47 -6 -74 84 -141 46 -34
84 -64 84 -67 -1 -3 -37 -32 -81 -64 -107 -78 -122 -115 -69 -168 25 -25 36
-29 60 -24 16 3 90 51 165 107 194 146 194 153 1 298 -74 55 -145 103 -158
106 -13 3 -34 -1 -48 -8z"/>
<path d="M3170 3613 c-8 -3 -74 -51 -147 -106 -191 -143 -191 -151 1 -295 74
-56 146 -104 160 -108 32 -8 73 17 86 52 18 46 1 73 -84 136 -44 33 -81 64
-81 68 0 4 37 35 81 68 52 39 84 69 88 85 7 28 -5 67 -26 84 -17 15 -59 23
-78 16z"/>
<path d="M122 2591 c-102 -50 -122 -69 -122 -116 0 -33 42 -75 75 -75 14 0 57
16 95 35 l70 35 70 -35 c38 -19 79 -35 90 -35 11 0 52 16 90 35 l70 35 70 -35
c38 -19 79 -35 90 -35 11 0 52 16 90 35 l70 35 70 -35 c38 -19 79 -35 90 -35
31 0 218 97 230 119 17 33 11 71 -15 96 -33 34 -63 31 -145 -10 l-70 -35 -70
35 c-38 19 -79 35 -90 35 -11 0 -52 -16 -90 -35 l-70 -35 -70 35 c-38 19 -79
35 -90 35 -11 0 -52 -16 -90 -35 l-70 -35 -70 35 c-38 19 -78 35 -88 35 -10 0
-64 -22 -120 -49z"/>
<path d="M3865 2615 c-26 -25 -32 -63 -15 -96 12 -22 199 -119 230 -119 11 0
52 16 90 35 l70 35 70 -35 c38 -19 79 -35 90 -35 11 0 52 16 90 35 l70 35 70
-35 c38 -19 79 -35 90 -35 11 0 52 16 90 35 l70 35 70 -35 c77 -39 105 -43
137 -20 27 19 39 75 23 105 -12 23 -200 120 -232 120 -10 0 -50 -16 -88 -35
l-69 -35 -73 35 c-40 19 -81 35 -90 35 -10 0 -50 -16 -88 -35 l-70 -35 -70 35
c-38 19 -79 35 -90 35 -11 0 -52 -16 -90 -35 l-70 -35 -70 35 c-82 41 -112 44
-145 10z"/>
<path d="M1186 2265 l-65 -55 -73 15 c-88 19 -107 15 -161 -33 -76 -68 -67
-65 -156 -47 -88 18 -109 13 -137 -30 -20 -31 -10 -81 19 -99 31 -20 222 -59
248 -51 11 4 45 29 75 56 58 52 65 54 134 38 89 -21 105 -16 183 52 40 34 80
72 89 83 40 48 4 126 -57 126 -26 0 -48 -12 -99 -55z"/>
<path d="M3781 2294 c-35 -45 -28 -76 32 -132 129 -123 137 -126 237 -103 69
16 76 14 134 -38 30 -27 64 -52 75 -56 26 -8 216 31 247 50 44 28 38 99 -10
130 -23 15 -31 15 -106 0 -90 -18 -81 -21 -157 47 -54 48 -73 52 -161 33 l-73
-15 -65 55 c-77 65 -118 73 -153 29z"/>
</g>
</svg>
