<?xml version="1.0" standalone="no"?>
<!DOCTYPE svg PUBLIC "-//W3C//DTD SVG 20010904//EN"
 "http://www.w3.org/TR/2001/REC-SVG-20010904/DTD/svg10.dtd">
<svg version="1.0" xmlns="http://www.w3.org/2000/svg"
 width="512.000000pt" height="512.000000pt" viewBox="0 0 512.000000 512.000000"
 preserveAspectRatio="xMidYMid meet">

<g transform="translate(0.000000,512.000000) scale(0.100000,-0.100000)"
fill="#000000" stroke="none">
<path d="M1380 5102 c-86 -43 -105 -147 -42 -232 l31 -43 -19 -38 c-53 -103
-49 -249 10 -363 21 -41 27 -63 20 -70 -14 -14 -13 -59 2 -74 19 -19 54 -14
85 11 15 13 66 53 113 89 l86 66 42 -54 c23 -30 42 -56 42 -59 0 -3 -24 -34
-52 -69 -188 -228 -280 -531 -249 -818 29 -271 140 -499 337 -693 l92 -91 -56
-94 c-68 -116 -77 -172 -42 -245 57 -117 219 -140 306 -43 12 12 45 65 74 116
29 50 54 92 55 92 2 0 43 -10 92 -22 127 -32 379 -32 506 0 49 12 90 22 92 22
1 0 26 -42 55 -92 29 -51 62 -104 74 -116 86 -96 249 -74 305 40 36 75 29 119
-37 238 l-58 105 90 90 c50 50 115 125 144 168 287 418 260 967 -65 1354 -23
28 -43 54 -43 57 0 17 86 114 95 107 5 -5 57 -45 114 -90 77 -61 111 -81 129
-79 36 4 49 30 35 68 -10 27 -8 37 18 88 58 112 62 259 9 361 l-19 38 31 42
c54 74 49 163 -14 216 -64 54 -153 42 -215 -29 l-39 -44 -53 11 c-112 22 -259
-24 -345 -107 -30 -30 -48 -41 -58 -35 -23 15 -47 10 -63 -15 -8 -13 -13 -31
-9 -40 5 -12 148 -130 233 -192 3 -2 -32 -49 -80 -107 -3 -5 -39 8 -79 28 -82
41 -224 90 -293 100 l-47 7 0 58 0 57 42 6 c86 12 122 71 116 189 -4 73 -24
112 -69 135 -17 9 -90 13 -249 13 -159 0 -232 -4 -249 -13 -45 -23 -65 -62
-69 -135 -7 -123 32 -180 127 -190 l51 -5 0 -58 c0 -58 -1 -59 -27 -59 -52 0
-217 -51 -312 -96 -52 -24 -97 -41 -101 -37 -3 5 -23 29 -43 55 l-38 47 88 68
c99 76 153 126 153 141 0 5 -9 20 -19 33 -16 20 -23 22 -47 14 -26 -9 -32 -6
-71 32 -85 82 -233 128 -344 106 l-54 -11 -34 40 c-57 66 -124 84 -191 50z
m109 -115 c9 -12 5 -20 -21 -42 l-32 -27 -18 22 c-24 29 -23 46 4 64 22 16 44
10 67 -17z m1289 -25 c2 -31 -2 -60 -9 -68 -15 -19 -398 -21 -417 -2 -13 13
-17 110 -5 122 4 3 102 5 217 4 l211 -3 3 -53z m940 16 c2 -8 -5 -25 -15 -37
l-18 -22 -34 29 -34 28 28 22 c25 20 31 21 49 8 12 -7 22 -20 24 -28z m-1886
-74 c43 -14 139 -86 128 -97 -7 -6 -405 -315 -453 -351 l-37 -28 -27 58 c-84
183 29 401 226 434 53 9 97 4 163 -16z m1694 -9 c153 -68 222 -254 151 -409
l-27 -58 -37 28 c-37 28 -444 343 -452 351 -9 7 55 64 95 83 88 43 181 45 270
5z m-906 -170 l0 -55 -50 0 -50 0 0 55 0 55 50 0 50 0 0 -55z m190 -188 c183
-47 341 -139 471 -274 137 -141 211 -274 266 -473 27 -100 24 -377 -5 -482
-64 -233 -193 -424 -376 -560 -409 -304 -963 -264 -1320 95 -133 133 -217 278
-268 465 -18 64 -22 105 -22 247 0 176 7 223 55 353 105 287 366 534 654 617
178 52 374 56 545 12z m560 -28 c0 -9 -70 -99 -77 -99 -11 0 -73 44 -73 52 0
3 18 29 40 57 l41 51 34 -27 c19 -16 35 -31 35 -34z m-1505 5 c19 -26 35 -50
35 -53 0 -3 -16 -17 -35 -30 -40 -27 -46 -24 -91 40 l-28 40 30 24 c16 13 34
24 41 25 7 0 28 -21 48 -46z"/>
<path d="M2390 4425 c-348 -72 -623 -343 -695 -685 -22 -105 -20 -285 5 -390
42 -175 158 -360 297 -475 82 -68 239 -148 348 -176 63 -17 109 -22 215 -22
165 0 249 20 395 92 178 88 313 225 400 404 63 131 76 189 82 357 4 131 2 154
-20 242 -89 342 -363 596 -711 657 -80 15 -236 12 -316 -4z m123 -124 c11 -54
83 -53 94 1 6 30 6 30 62 25 31 -2 95 -18 141 -34 l85 -29 -3 -37 c-6 -65 39
-89 84 -46 l23 21 29 -21 c16 -11 64 -57 106 -102 l77 -81 -26 -24 c-32 -29
-32 -59 0 -80 21 -14 31 -15 51 -5 23 10 26 9 44 -35 21 -49 44 -135 54 -199
5 -39 4 -41 -26 -50 -42 -13 -55 -36 -40 -69 9 -20 19 -26 42 -26 l31 0 -6
-47 c-7 -54 -37 -161 -60 -216 -14 -33 -18 -36 -36 -26 -31 16 -68 3 -75 -28
-6 -21 -2 -31 20 -49 l26 -23 -53 -63 c-29 -34 -77 -82 -106 -106 l-53 -43
-24 26 c-18 20 -30 25 -47 19 -31 -10 -38 -24 -32 -66 l5 -37 -57 -21 c-62
-23 -173 -50 -210 -50 -18 0 -23 6 -23 25 0 15 -9 31 -25 41 -23 15 -27 15
-50 0 -16 -10 -25 -26 -25 -41 0 -19 -5 -25 -22 -25 -38 0 -149 27 -211 50
l-57 21 5 37 c6 42 -1 56 -32 66 -17 6 -29 1 -47 -18 l-23 -26 -29 22 c-49 36
-104 91 -145 141 l-39 48 27 23 c21 18 25 28 19 49 -7 31 -44 44 -75 28 -18
-10 -22 -7 -36 26 -23 55 -53 162 -60 216 l-6 47 30 0 c64 0 64 84 0 97 -29 6
-30 7 -24 47 11 67 34 152 55 200 18 44 21 45 44 35 20 -10 30 -9 51 5 32 21
32 51 0 80 l-26 24 77 81 c42 45 90 91 106 102 l29 21 23 -21 c46 -43 93 -17
83 45 -5 31 -3 36 21 46 65 27 180 57 218 57 38 1 42 -1 47 -28z"/>
<path d="M2526 4174 c-13 -13 -16 -46 -16 -208 l0 -193 -41 -18 c-82 -37 -138
-137 -126 -226 3 -23 19 -64 36 -91 l31 -49 0 -157 c0 -135 3 -161 20 -197 53
-110 206 -111 259 -2 19 38 21 61 21 200 0 156 0 156 30 203 55 87 49 186 -15
262 -18 21 -52 46 -74 57 l-41 18 0 193 c0 205 -4 224 -50 224 -10 0 -26 -7
-34 -16z m105 -525 c38 -27 57 -87 40 -127 -22 -53 -57 -77 -111 -77 -108 0
-157 123 -78 197 38 35 105 39 149 7z m-23 -441 c-3 -115 -5 -131 -22 -144
-11 -8 -23 -14 -26 -14 -3 0 -15 6 -26 14 -17 13 -19 29 -22 144 l-4 130 52 0
52 0 -4 -130z"/>
<path d="M1232 2049 c-101 -20 -192 -95 -241 -198 l-26 -56 -3 -335 c-3 -289
-1 -344 13 -397 27 -99 88 -173 185 -224 40 -21 60 -24 195 -27 136 -3 156 -2
210 19 70 26 153 99 180 159 10 22 21 40 24 40 3 0 14 -17 23 -38 25 -55 95
-121 158 -151 50 -24 68 -26 200 -29 131 -3 152 -1 205 19 69 26 155 101 182
160 10 21 20 38 23 38 3 0 13 -17 23 -38 26 -58 113 -134 180 -159 49 -19 79
-22 195 -22 120 0 144 3 194 24 65 27 103 56 144 109 l28 38 18 -53 c19 -60
64 -104 113 -114 17 -3 127 -4 245 -2 204 3 217 4 260 27 97 51 158 126 185
224 14 53 16 108 13 397 l-3 335 -33 67 c-38 77 -92 130 -171 166 -54 25 -65
27 -259 30 -173 4 -210 2 -248 -13 -53 -20 -91 -63 -106 -120 l-12 -43 -27 38
c-34 47 -80 82 -145 112 -44 21 -64 23 -199 23 -141 0 -153 -2 -206 -26 -71
-34 -129 -86 -160 -144 -13 -25 -26 -45 -29 -45 -3 0 -16 20 -29 45 -31 58
-89 110 -160 144 -53 24 -65 26 -206 26 -141 0 -153 -2 -205 -26 -74 -35 -125
-81 -162 -147 l-31 -54 -14 33 c-37 88 -128 161 -232 185 -62 15 -221 17 -289
3z m242 -95 c110 -15 204 -114 208 -219 2 -39 -2 -50 -22 -67 -39 -32 -100 -5
-100 45 0 33 -29 82 -59 100 -39 23 -208 24 -251 2 -58 -30 -60 -44 -60 -382
0 -330 1 -339 52 -376 35 -26 173 -35 233 -15 64 21 85 63 85 166 0 106 -11
122 -82 122 -39 0 -54 5 -73 25 -14 13 -25 31 -25 40 0 9 11 27 25 40 22 23
31 25 128 25 155 0 152 5 152 -202 -1 -177 -7 -203 -61 -267 -15 -19 -51 -44
-79 -57 -43 -21 -65 -24 -164 -24 -62 0 -131 5 -152 12 -51 15 -114 69 -142
122 -21 39 -22 53 -25 354 -4 340 2 392 45 455 28 41 95 85 146 97 41 10 161
12 221 4z m878 -31 c70 -39 114 -109 123 -196 4 -34 5 -190 3 -347 -4 -325 -7
-341 -84 -408 -56 -50 -99 -62 -229 -62 -135 0 -177 12 -237 70 -76 74 -80
100 -76 477 l3 318 31 55 c23 41 45 63 84 87 65 40 78 42 217 38 103 -2 116
-5 165 -32z m789 0 c60 -33 112 -105 123 -170 3 -21 6 -169 6 -329 0 -345 -5
-373 -79 -444 -59 -58 -101 -70 -236 -70 -130 0 -173 12 -230 62 -77 68 -80
83 -80 468 l0 335 31 55 c34 60 97 107 162 121 20 4 85 7 143 5 97 -2 111 -5
160 -33z m787 3 c66 -37 108 -92 122 -162 7 -35 10 -164 8 -366 -3 -301 -4
-315 -25 -354 -28 -53 -91 -107 -142 -122 -43 -13 -408 -17 -428 -4 -6 4 -17
20 -22 35 -14 37 -15 925 -1 962 5 14 20 30 32 35 13 5 109 9 213 7 190 -2
190 -2 243 -31z m-2466 -239 c10 -48 35 -85 73 -108 l30 -19 -74 0 c-89 0
-149 -24 -180 -73 l-21 -32 0 131 c0 72 3 134 7 138 4 4 41 5 82 4 l75 -3 8
-38z m288 -133 l0 -56 -31 26 c-17 14 -36 26 -42 26 -7 0 2 9 19 19 18 11 35
24 38 30 13 20 16 11 16 -45z m-377 -304 c23 -11 52 -20 65 -20 19 0 22 -5 22
-45 l0 -45 -85 0 -85 0 0 98 0 97 20 -33 c12 -19 38 -41 63 -52z"/>
<path d="M2038 1814 c-56 -30 -58 -45 -58 -381 0 -331 1 -338 53 -377 25 -18
43 -21 132 -21 89 0 107 3 132 21 52 39 53 46 53 377 0 338 -2 352 -60 382
-40 21 -214 20 -252 -1z m210 -381 l2 -293 -85 0 -85 0 0 288 c0 159 3 292 7
296 4 4 41 5 83 4 l75 -3 3 -292z"/>
<path d="M2828 1814 c-56 -30 -58 -45 -58 -381 0 -331 1 -338 53 -377 25 -18
43 -21 132 -21 89 0 107 3 132 21 52 39 53 46 53 377 0 338 -2 352 -60 382
-40 21 -214 20 -252 -1z m210 -381 l2 -293 -85 0 -85 0 0 288 c0 159 3 292 7
296 4 4 41 5 83 4 l75 -3 3 -292z"/>
<path d="M3577 1812 c-15 -17 -17 -58 -17 -378 0 -296 3 -364 14 -380 13 -17
27 -19 144 -19 117 0 134 2 159 21 52 39 53 46 53 377 0 256 -3 313 -15 337
-26 50 -59 60 -198 60 -107 0 -126 -2 -140 -18z m251 -379 l2 -293 -85 0 -85
0 0 295 0 296 83 -3 82 -3 3 -292z"/>
<path d="M1383 631 c-52 -13 -84 -40 -105 -87 -17 -40 -19 -63 -16 -244 3
-182 5 -201 24 -226 44 -59 68 -69 169 -69 101 0 125 10 169 69 20 26 21 41
21 246 0 207 -1 220 -21 247 -12 15 -35 36 -51 46 -35 20 -142 30 -190 18z
m153 -116 c11 -14 14 -63 14 -199 0 -216 0 -216 -96 -216 -93 0 -94 3 -94 220
0 217 3 223 109 216 38 -2 58 -8 67 -21z"/>
<path d="M1780 634 c-38 -16 -40 -31 -40 -319 0 -260 1 -283 18 -298 23 -21
46 -22 66 -1 13 13 16 42 16 165 l0 150 32 -3 c32 -3 34 -7 102 -161 57 -129
73 -158 93 -163 26 -7 63 19 63 42 0 8 -27 75 -59 149 l-59 135 39 22 c75 42
101 151 51 217 -38 52 -76 65 -196 68 -61 1 -118 0 -126 -3z m214 -104 c34
-12 44 -54 21 -80 -15 -17 -31 -20 -97 -20 l-78 0 0 48 c0 27 3 52 7 55 10 10
118 8 147 -3z"/>
<path d="M2523 629 c-13 -4 -24 -10 -25 -11 -1 -2 -4 -82 -7 -178 l-6 -175
-97 180 c-88 166 -99 180 -125 183 -17 2 -35 -3 -42 -11 -8 -11 -11 -94 -9
-308 l3 -294 28 -9 c22 -8 31 -6 45 7 14 15 18 44 22 188 l5 170 96 -177 c53
-98 103 -182 112 -188 10 -7 24 -6 41 2 l26 12 -2 296 c-3 284 -4 297 -23 309
-13 9 -28 10 -42 4z"/>
<path d="M2713 630 c-44 -18 -37 -85 9 -92 23 -3 23 -3 26 -220 2 -212 2 -218
-18 -218 -11 0 -27 -11 -36 -25 -15 -23 -15 -27 0 -50 15 -23 22 -25 101 -25
79 0 86 2 101 25 15 23 15 27 0 50 -9 14 -23 25 -31 25 -13 0 -15 33 -15 220
0 212 1 220 20 220 24 0 43 34 35 61 -4 11 -18 24 -32 30 -30 11 -130 11 -160
-1z"/>
<path d="M3331 624 c-20 -14 -21 -23 -21 -191 0 -97 -3 -173 -7 -169 -5 4 -51
87 -103 184 -86 159 -98 177 -123 180 -57 7 -57 6 -57 -309 0 -248 2 -290 16
-303 21 -21 47 -20 67 2 15 16 17 45 17 193 l0 174 101 -187 c83 -155 105
-189 126 -194 20 -5 31 -2 45 16 16 20 18 46 18 299 0 286 -2 300 -41 314 -9
3 -26 -1 -38 -9z"/>
<path d="M3621 631 c-18 -5 -50 -25 -70 -45 l-36 -36 -3 -223 c-3 -218 -3
-223 20 -256 35 -52 80 -71 168 -71 88 0 133 19 168 70 19 28 22 46 22 121 0
106 -11 119 -101 119 -75 0 -108 -24 -94 -66 9 -25 16 -29 53 -32 l42 -3 0
-44 c0 -54 -16 -65 -90 -65 -93 0 -90 -7 -90 214 0 219 -1 216 78 223 60 5 93
-13 104 -55 11 -40 45 -59 77 -43 45 25 17 124 -49 173 -30 22 -144 32 -199
19z"/>
<path d="M4097 627 c-16 -11 -17 -33 -15 -212 l3 -200 27 -9 c22 -8 32 -6 48
9 19 17 20 30 20 205 0 168 -2 189 -18 203 -22 20 -42 21 -65 4z"/>
<path d="M4337 627 c-16 -11 -17 -33 -15 -212 l3 -200 27 -9 c22 -8 32 -6 48
9 19 17 20 30 20 205 0 168 -2 189 -18 203 -22 20 -42 21 -65 4z"/>
<path d="M710 611 c-6 -12 -10 -126 -10 -299 0 -257 1 -280 18 -295 23 -21 46
-22 66 -1 14 13 16 48 16 227 l0 212 59 -62 c34 -37 67 -63 79 -63 12 0 43 25
76 61 l56 60 0 -204 c0 -186 2 -207 19 -228 16 -20 23 -22 47 -14 l29 10 3
294 c2 208 -1 298 -9 307 -6 8 -23 14 -38 14 -21 0 -43 -18 -101 -85 -41 -47
-78 -85 -81 -85 -4 0 -41 38 -84 85 -62 69 -82 85 -106 85 -18 0 -32 -7 -39
-19z"/>
<path d="M4096 107 c-13 -9 -17 -23 -14 -52 2 -33 8 -41 30 -49 54 -19 93 58
50 97 -22 20 -42 21 -66 4z"/>
<path d="M4336 107 c-13 -9 -17 -23 -14 -52 2 -33 8 -41 30 -49 54 -19 93 58
50 97 -22 20 -42 21 -66 4z"/>
</g>
</svg>
