<?xml version="1.0" ?><svg viewBox="0 0 96 96" xmlns="http://www.w3.org/2000/svg"><title/><g data-name="Layer 2" id="Layer_2"><g data-name="Layer 2" id="Layer_2-2"><path d="M48,0A48,48,0,1,0,96,48,48,48,0,0,0,48,0ZM67.74,59.83c0,5.29-5.32,7.62-10.06,7.62S47.61,64.88,47.61,60.6s-.19-5.51-.19-9.73c0-6.31-10.14-5.51-10.23.38-.06,3.37,0,9,0,12.94s-7.79,3.59-7.79.22.19-35,.19-35,6.06-3.32,7.6,3.79V44.58C38,39.84,52.52,34.82,55,49.33,55,54.4,55,57.5,55,61s5.13,2.88,5.13.17V43.24c0-2.28,1.37-3,3.21-3s4.39.63,4.39,2.5ZM63.93,36.58a4,4,0,0,1-4.36-3.78,3.8,3.8,0,0,1,4-4.2,3.93,3.93,0,0,1,4.36,4A3.83,3.83,0,0,1,63.93,36.58Z"/></g></g></svg>