<?xml version="1.0" standalone="no"?>
<!DOCTYPE svg PUBLIC "-//W3C//DTD SVG 20010904//EN"
 "http://www.w3.org/TR/2001/REC-SVG-20010904/DTD/svg10.dtd">
<svg version="1.0" xmlns="http://www.w3.org/2000/svg"
 width="512.000000pt" height="512.000000pt" viewBox="0 0 512.000000 512.000000"
 preserveAspectRatio="xMidYMid meet">
<metadata>
Created by potrace 1.16, written by Peter Selinger 2001-2019
</metadata>
<g transform="translate(0.000000,512.000000) scale(0.100000,-0.100000)"
fill="#000000" stroke="none">
<path d="M26 5094 l-26 -27 0 -679 c0 -447 4 -686 10 -699 6 -10 25 -26 42
-35 27 -14 59 -16 220 -12 l188 4 0 -1280 -1 -1281 65 -85 c35 -47 90 -113
121 -147 l57 -63 1104 0 1104 0 0 393 c0 353 2 395 18 427 9 19 28 40 42 47
19 10 212 13 858 13 l832 0 0 1090 0 1090 -455 0 c-331 0 -461 3 -480 12 -50
22 -55 49 -55 268 l0 200 -735 0 -735 0 0 355 c0 310 -2 360 -16 388 -9 18
-22 35 -28 39 -6 4 -482 8 -1057 8 l-1046 0 -27 -26z m1224 -1874 c11 -11 22
-30 25 -42 3 -13 4 -295 3 -626 l-3 -604 -24 -19 c-30 -24 -72 -24 -102 0
l-24 19 0 627 0 627 24 19 c30 25 76 24 101 -1z m1430 -258 c19 -24 20 -42 20
-462 0 -486 2 -473 -66 -486 -48 -9 -85 28 -91 93 l-5 52 -38 -25 c-173 -114
-405 -90 -553 57 -101 102 -150 245 -127 379 32 190 181 338 373 371 90 15
171 0 268 -49 l77 -39 5 50 c7 54 27 84 61 89 34 6 55 -3 76 -30z m364 16 c15
-6 31 -26 38 -44 10 -29 14 -32 27 -20 105 92 333 74 423 -32 l24 -29 38 33
c73 63 119 78 237 79 98 0 109 -2 165 -30 45 -23 68 -44 96 -85 63 -93 69
-133 68 -485 l0 -310 -26 -22 c-31 -28 -64 -29 -95 -4 l-24 19 -5 319 c-5 299
-6 321 -27 365 -27 59 -66 80 -147 81 -107 1 -172 -50 -195 -153 -6 -25 -11
-167 -11 -317 0 -149 -3 -279 -6 -288 -7 -17 -54 -45 -78 -45 -8 0 -28 11 -43
24 l-28 24 -5 314 c-5 294 -6 316 -27 360 -25 55 -58 79 -117 85 -88 10 -166
-38 -207 -129 -23 -51 -24 -65 -29 -341 l-5 -289 -28 -24 c-15 -13 -34 -24
-42 -24 -27 0 -63 23 -74 47 -15 34 -15 852 0 887 19 40 60 54 103 34z"/>
<path d="M2167 2776 c-119 -43 -197 -150 -197 -272 0 -101 57 -198 147 -251
69 -40 181 -45 254 -10 110 51 169 142 169 262 0 89 -29 155 -94 212 -77 68
-188 91 -279 59z"/>
</g>
</svg>
