<?xml version="1.0" standalone="no"?>
<!DOCTYPE svg PUBLIC "-//W3C//DTD SVG 20010904//EN"
 "http://www.w3.org/TR/2001/REC-SVG-20010904/DTD/svg10.dtd">
<svg version="1.0" xmlns="http://www.w3.org/2000/svg"
 width="700.000000pt" height="700.000000pt" viewBox="0 0 700.000000 700.000000"
 preserveAspectRatio="xMidYMid meet">

<g transform="translate(0.000000,700.000000) scale(0.100000,-0.100000)"
fill="#000000" stroke="none">
<path d="M5020 6003 c-23 -9 -50 -35 -50 -49 0 -7 14 -29 30 -48 36 -40 60
-104 60 -157 0 -57 -46 -265 -92 -419 -56 -187 -159 -513 -166 -525 -3 -5 -9
2 -13 15 -4 14 -40 142 -82 285 -41 143 -87 305 -102 360 -15 55 -40 147 -56
204 -34 123 -36 170 -8 228 11 23 19 51 17 60 -5 28 -51 27 -122 -1 -99 -40
-198 -33 -308 20 -36 17 -38 17 -58 -1 -28 -25 -26 -33 20 -72 90 -77 131
-176 254 -613 72 -254 82 -289 151 -513 25 -82 45 -161 45 -175 0 -25 -12 -49
-54 -107 -16 -23 -6 -62 19 -71 9 -4 43 6 77 21 55 25 69 27 147 23 55 -3 110
-13 152 -29 57 -20 69 -21 83 -10 21 18 20 37 -3 69 -37 53 -41 91 -16 183 39
142 181 650 220 784 15 50 33 114 41 144 32 115 99 219 182 284 17 13 22 26
20 50 -3 30 -5 32 -43 31 -22 -1 -65 -9 -95 -18 -68 -21 -121 -15 -163 17 -37
28 -65 38 -87 30z"/>
<path d="M6207 5975 c-58 -41 -112 -50 -292 -49 -140 0 -231 15 -283 45 -41
23 -88 25 -96 3 -3 -9 11 -44 34 -83 23 -39 45 -92 52 -127 13 -68 18 -809 5
-939 -13 -138 -36 -219 -79 -272 -90 -113 -79 -172 23 -118 72 37 212 59 341
51 115 -6 188 -25 292 -78 l60 -30 21 25 c11 13 41 53 66 88 26 36 68 87 93
116 51 56 56 75 26 96 -19 13 -28 10 -98 -24 -93 -45 -176 -68 -281 -76 -157
-12 -158 -11 -151 325 l5 244 33 29 c18 16 41 29 51 29 11 0 43 -23 73 -51 76
-72 100 -83 176 -80 62 2 162 119 164 192 1 41 -8 46 -41 21 -52 -38 -72 -37
-156 7 -110 59 -189 52 -270 -24 l-30 -27 -3 179 c-4 215 3 295 28 325 17 21
27 23 112 23 117 0 179 -19 282 -86 68 -45 82 -50 102 -40 34 15 30 34 -22
106 -25 36 -67 102 -93 147 -56 98 -71 104 -144 53z"/>
<path d="M3452 5984 c-30 -21 -27 -58 7 -93 52 -53 56 -26 -63 -436 -19 -66
-50 -160 -69 -210 -19 -49 -54 -155 -77 -235 -98 -339 -115 -381 -201 -467
-48 -48 -59 -66 -54 -82 9 -29 44 -27 124 6 96 38 183 37 274 -5 53 -25 73
-29 88 -21 23 12 24 36 4 76 -30 61 -29 111 5 242 18 67 39 129 47 137 9 9 37
14 76 15 290 6 348 5 356 -5 11 -14 51 -205 51 -244 0 -43 -19 -92 -52 -135
-37 -47 -35 -86 5 -105 29 -14 26 -15 108 32 44 25 121 24 194 -3 67 -25 60
-25 79 -5 29 28 18 57 -39 107 -103 90 -115 117 -224 502 -28 99 -78 272 -112
385 -111 374 -115 407 -64 474 21 28 24 39 16 54 -17 31 -34 32 -106 6 -119
-43 -203 -41 -316 9 -32 14 -38 14 -57 1z m354 -480 c90 -301 125 -426 122
-429 -8 -8 -327 -15 -332 -7 -3 5 1 29 8 53 25 78 113 382 132 452 9 37 21 64
26 59 4 -4 24 -62 44 -128z"/>
<path d="M557 5983 c-15 -14 -6 -50 23 -93 57 -85 61 -115 65 -507 5 -578 -10
-719 -92 -845 -25 -41 -43 -79 -41 -91 4 -31 49 -34 100 -7 107 56 176 56 301
-1 l68 -31 25 23 c32 30 30 63 -5 108 -54 68 -55 86 -53 576 3 689 6 723 85
790 37 32 39 37 28 61 -13 30 -31 29 -131 -2 -85 -26 -222 -25 -287 4 -54 23
-75 27 -86 15z"/>
<path d="M1737 5973 c-19 -19 -7 -51 47 -127 38 -54 46 -148 47 -570 0 -420
-14 -577 -63 -686 -16 -36 -39 -76 -52 -90 -13 -14 -26 -32 -29 -41 -12 -35
40 -52 78 -26 29 20 149 49 196 49 62 -1 99 -11 158 -44 45 -25 58 -28 77 -19
32 14 30 35 -9 95 -51 77 -57 106 -64 297 l-6 177 39 5 c22 4 109 7 194 9
l155 3 -3 -90 c-4 -113 -28 -258 -51 -310 -10 -23 -34 -64 -55 -92 -42 -59
-45 -79 -11 -95 20 -9 34 -7 82 15 72 32 145 49 181 42 15 -4 71 -21 125 -38
97 -31 99 -32 113 -13 17 24 10 50 -26 97 -61 78 -62 82 -56 633 3 276 8 533
12 571 9 88 34 144 80 173 26 17 34 29 32 45 -4 31 -62 34 -141 6 -93 -32
-205 -30 -286 7 l-62 27 -21 -21 -21 -21 40 -63 c23 -35 46 -86 52 -114 14
-68 33 -425 29 -539 l-3 -90 -189 -3 -189 -2 5 319 4 319 27 54 c15 30 38 60
51 68 31 16 39 36 26 61 -14 25 -40 24 -156 -6 -123 -32 -150 -31 -241 5 -75
30 -104 36 -116 23z"/>





</g>
</svg>
