<?xml version="1.0" encoding="utf-8"?>
<!-- Generator: Adobe Illustrator 20.1.0, SVG Export Plug-In . SVG Version: 6.00 Build 0)  -->
<svg version="1.1" id="Calque_1" xmlns="http://www.w3.org/2000/svg" xmlns:xlink="http://www.w3.org/1999/xlink" x="0px" y="0px"
	 viewBox="0 0 432 432" style="enable-background:new 0 0 432 432;" xml:space="preserve">
<style type="text/css">
	.st0{fill:#C9973C;}
	.st1{fill:#CC7B26;}
	.st2{fill:#C9973D;}
	.st3{fill:#CB9A3E;}
</style>
<g>
	<g>
		<g>

			<path d="M242.2,109.4c1.4,0,2.5-0.5,3.5-1.4c1-0.9,1.4-2.2,1.4-3.9c0-1.4-0.5-2.6-1.5-3.4c-1-0.8-2.2-1.3-3.5-1.3
				c-1.3,0-2.4,0.4-3.4,1.3c-1,0.8-1.5,2-1.5,3.4c0,1.7,0.5,3,1.5,3.9C239.7,108.9,240.8,109.4,242.2,109.4z"/>
			<path d="M294.8,120.6c-0.5-0.4-1-0.5-1.5-0.5c-0.2,0-0.4,0.1-0.6,0.2c-3.4,5-6.9,9.3-10.5,12.8c-3.7,3.5-7.3,5.6-10.8,6.3
				c-0.4-1-0.9-2.2-1.4-3.8c1.3-0.5,2.8-1.9,4.7-4.1c1.8-2.3,3.5-4.9,4.9-7.8c1.4-2.9,2.2-5.5,2.4-7.7c0.1-3.1-1.1-5.6-3.5-7.5
				c-2-1.5-4.1-2.3-6.2-2.3c-1.4,0-2.9,0.3-4.6,1c-2.9,1.3-5.4,3.4-7.5,6.3c-1.7,2.4-2.7,4.9-3,7.6c-1.5,2.7-3.4,6.1-5.6,10.4
				c-3.8,7.1-6.8,12.3-9,15.6c-2.2,3.3-4.3,5-6.3,5c-0.2,0-0.6-0.1-1.1-0.2c-0.2-0.5-0.2-1-0.2-1.4c0-1.8,0.4-4.4,1.3-7.8
				c0.8-3.4,2-7.7,3.5-12.9c1.1-3.8,1.7-5.8,1.8-6.1c0.3-1.1,0.6-2.6,1-4.6c0.2-1.3-0.4-2.4-1.8-3.4c-1.1-0.6-2.1-1-3-1
				c-1.7,0-3,1-4.1,3.1c-4.4,9.1-6.8,18.5-7.2,28.2c0,2.6,0.4,4.7,1.3,6.1c0.8,1.4,2.5,2.6,5.1,3.6c1,0.3,1.7,0.5,2.3,0.5
				c3.3,0,6.5-2.2,9.6-6.7c3.2-4.5,6.8-10.7,10.8-18.8c0.7-1.5,1.4-2.8,2.1-4c1.1,4.7,2.3,8.3,3.7,10.8c0.4,0.6,0.8,1.4,1.2,2.4
				c0.4,1,0.7,1.7,1,2.3c0.2,0.5,0.4,0.9,0.4,1.3c0,0.8-0.4,1.5-1.3,2.2c-0.2,0.2-1.5,1-3.7,2.6c-4.1,2.8-7.2,5.4-9.3,7.7
				c-2.2,2.2-3.6,4.6-4.4,7.3c-0.2,1-0.4,1.9-0.4,2.8c0,2.6,1.1,4.7,3.4,6.5c2.5,2,5.2,3,8.2,3c0.6,0,1.5-0.1,2.6-0.2
				c5.9-1.2,10.1-4.5,12.6-9.8c1.7-3.3,2.5-7.6,2.5-12.9c0-3.7-0.4-6.8-1.2-9.5c3.4-1.7,6-3.1,8.1-4.4c2-1.2,4.4-3.2,7-5.9
				c2.6-2.7,5.2-6.3,7.7-10.8C295.5,121.3,295.4,120.9,294.8,120.6z M261.2,167c-1.8,2.2-4,3.6-6.6,4.2c-0.3,0.1-0.8,0.1-1.4,0.1
				c-2,0-3.4-1-4.2-2.9c-0.5-1-0.7-2.1-0.7-3.1c0-1,0.2-2,0.6-3c0.8-1.9,1.8-3.6,3-4.9c3.3-3.6,7-6.5,11.1-8.9
				c0.6-0.4,1.2-0.6,1.7-0.6c0.9,0,1.4,0.6,1.6,1.9l0.2,2.6C266.5,157.8,264.8,162.6,261.2,167z M267.8,124.7
				c-0.1-0.3-0.1-0.8-0.1-1.4c0-3,1.2-5.9,3.5-8.7c0.2-0.2,0.5-0.6,1-1.2c0.5-0.6,1.1-1.2,1.8-1.7c0.7-0.5,1.4-0.6,2.2-0.4
				c1.3,0.5,1.9,1.5,1.9,3.1c0,0.6,0,1.2-0.1,1.7c-0.1,0.5-0.2,0.9-0.2,1.2c-0.2,1.8-1.2,4.2-2.9,7.4c-1.7,3.2-3.6,5.8-5.9,7.9
				C268.1,129.2,267.7,126.6,267.8,124.7z"/>
		</g>
		
		
	</g>
	
</g>
</svg>
