<?xml version="1.0" standalone="no"?>
<!DOCTYPE svg PUBLIC "-//W3C//DTD SVG 20010904//EN"
 "http://www.w3.org/TR/2001/REC-SVG-20010904/DTD/svg10.dtd">
<svg version="1.0" xmlns="http://www.w3.org/2000/svg"
 width="622.000000pt" height="554.000000pt" viewBox="0 0 622.000000 554.000000"
 preserveAspectRatio="xMidYMid meet">

<g transform="translate(0.000000,554.000000) scale(0.100000,-0.100000)"
fill="#000000" stroke="none">
<path d="M1455 3706 c-47 -46 -85 -90 -85 -98 0 -11 -44 -12 -237 -10 -253 3
-272 0 -292 -45 -16 -34 -16 -1572 0 -1606 18 -40 49 -47 217 -47 139 0 161 2
190 20 l32 20 0 92 c1 51 0 231 0 399 0 168 2 313 6 322 7 18 24 23 24 7 0
-20 171 -365 192 -387 21 -22 28 -23 174 -23 148 0 153 1 171 24 10 12 59 107
108 209 50 102 93 186 96 186 11 2 17 -169 18 -499 l1 -325 26 -22 c24 -22 33
-23 195 -23 l171 0 29 29 29 29 0 787 c0 523 -3 793 -10 806 -9 15 -7 19 6 19
24 0 186 168 182 188 -2 8 -9 17 -15 19 -16 6 -183 -160 -183 -181 0 -18 -15
-21 -25 -6 -4 6 -96 10 -244 10 -283 0 -260 11 -319 -155 -22 -61 -63 -168
-91 -240 -28 -71 -70 -184 -93 -249 -24 -66 -48 -121 -54 -123 -10 -3 -83 186
-205 532 -27 77 -58 157 -68 177 -18 36 -18 38 0 43 10 3 54 45 99 92 63 68
78 89 69 99 -6 8 -15 14 -20 14 -5 0 -47 -38 -94 -84z"/>
<path d="M3724 3689 l-89 -91 -182 1 -183 2 -25 -25 -25 -25 0 -499 c0 -491 0
-500 21 -526 42 -53 58 -56 316 -56 182 -1 242 -4 256 -14 15 -12 17 -36 17
-245 0 -246 5 -277 49 -301 11 -6 91 -10 185 -10 160 0 166 1 193 24 l28 24 3
245 c3 210 5 247 19 259 12 10 79 14 267 18 231 5 253 7 278 25 58 42 59 54
56 578 l-3 479 -28 24 c-27 23 -33 24 -203 24 l-175 0 -24 -26 -25 -27 0 -286
c0 -243 -2 -290 -16 -309 l-15 -22 -358 0 -357 0 93 93 c51 51 93 99 93 105 0
47 -72 -1 -165 -110 -22 -25 -43 -47 -47 -47 -5 -1 -8 128 -8 285 0 175 -4
293 -10 304 -8 15 -7 18 2 15 20 -8 192 170 185 189 -12 30 -33 16 -123 -75z"/>

</g>
</svg>
