<?xml version="1.0" standalone="no"?>
<!DOCTYPE svg PUBLIC "-//W3C//DTD SVG 20010904//EN"
 "http://www.w3.org/TR/2001/REC-SVG-20010904/DTD/svg10.dtd">
<svg version="1.0" xmlns="http://www.w3.org/2000/svg"
 width="512.000000pt" height="512.000000pt" viewBox="0 0 512.000000 512.000000"
 preserveAspectRatio="xMidYMid meet">

<g transform="translate(0.000000,512.000000) scale(0.100000,-0.100000)"
fill="#000000" stroke="none">
<path d="M1578 5100 c-55 -43 -95 -323 -69 -486 33 -204 130 -378 295 -530
l74 -69 -254 -575 c-264 -598 -270 -616 -243 -687 5 -15 27 -45 47 -66 30 -30
55 -43 135 -68 76 -23 100 -35 107 -52 4 -12 52 -155 105 -317 161 -494 272
-771 339 -844 39 -43 80 -56 174 -56 112 0 384 45 515 86 16 5 17 -11 17 -233
l-1 -238 -86 -28 c-363 -120 -737 -348 -1027 -627 -134 -129 -186 -194 -186
-235 0 -22 8 -41 22 -55 22 -20 25 -20 1665 -20 l1644 0 26 26 c23 23 25 31
19 75 -20 151 -132 411 -243 566 -127 178 -302 357 -470 481 l-63 47 0 305 1
305 120 130 c385 416 620 831 709 1250 33 155 39 432 12 590 -73 424 -321 809
-675 1046 -242 162 -442 212 -842 212 -227 0 -364 -12 -765 -68 -330 -46 -432
-52 -542 -31 -110 21 -262 73 -397 137 -57 27 -112 49 -121 49 -10 0 -29 -9
-42 -20z m1902 -350 c28 -28 26 -81 -2 -107 -19 -17 -46 -23 -143 -32 -66 -7
-164 -19 -218 -28 -96 -16 -99 -16 -125 4 -22 16 -27 28 -27 63 0 34 5 46 25
61 31 22 259 57 383 58 74 1 90 -2 107 -19z m-1345 -844 c195 -58 441 -78 680
-56 77 7 151 14 165 14 23 1 26 -6 95 -288 59 -238 76 -292 95 -308 37 -30 66
-23 123 33 77 76 142 104 243 104 73 0 84 -3 118 -29 52 -39 86 -116 93 -209
11 -147 -39 -272 -163 -407 l-76 -83 6 -76 c21 -222 83 -409 189 -566 50 -72
158 -181 215 -215 l41 -25 1 -287 0 -288 -22 -5 c-13 -3 -95 -19 -183 -36
-167 -32 -578 -119 -674 -143 -31 -8 -68 -17 -83 -20 l-28 -6 0 274 c0 151 -3
282 -6 291 -4 8 -19 22 -35 30 -26 14 -40 12 -181 -25 -188 -49 -367 -80 -459
-80 l-68 0 -39 83 c-46 97 -102 238 -170 434 l-50 141 41 11 c55 15 107 16
189 7 64 -8 68 -7 93 19 22 21 26 32 21 58 -8 44 -35 63 -111 77 -70 13 -145
9 -231 -14 l-51 -13 -58 186 c-36 118 -65 194 -79 208 -12 12 -67 36 -130 55
-60 19 -114 41 -120 50 -7 12 40 129 209 515 297 676 273 626 293 620 9 -3 57
-17 107 -31z m1971 -2891 c155 -116 334 -305 441 -465 77 -115 154 -277 177
-373 l6 -27 -1482 0 -1482 0 54 56 c73 74 242 210 360 288 269 179 525 290
870 376 232 58 902 197 954 199 21 1 50 -15 102 -54z"/>
<path d="M2320 3316 c-78 -17 -146 -52 -201 -105 -56 -54 -68 -90 -44 -127 22
-33 230 -137 259 -128 57 16 76 97 31 132 -13 11 -38 25 -55 32 -16 7 -30 16
-30 20 0 7 42 20 115 35 45 10 65 33 65 76 0 29 -6 42 -26 58 -30 24 -37 24
-114 7z"/>
<path d="M822 2845 c-86 -44 -132 -121 -132 -222 0 -72 27 -130 86 -182 115
-101 273 -74 419 73 89 91 113 133 96 172 -16 38 -88 95 -178 140 -63 32 -85
38 -156 42 -74 3 -87 1 -135 -23z m226 -156 c34 -17 62 -34 62 -39 0 -17 -75
-83 -115 -101 -58 -27 -91 -24 -126 10 -63 64 -19 161 74 161 29 0 65 -10 105
-31z"/>
<path d="M1340 2393 c-134 -22 -316 -124 -519 -291 -201 -165 -532 -516 -607
-645 -104 -178 -100 -351 12 -460 40 -39 121 -87 148 -87 27 0 25 -15 -10
-103 -48 -119 -84 -267 -84 -343 0 -65 32 -228 69 -359 33 -113 -3 -105 482
-105 l418 0 24 23 c19 17 32 52 56 152 56 228 45 205 98 205 25 0 63 5 85 12
50 15 123 79 149 130 66 128 116 633 106 1053 -10 419 -68 651 -188 759 -65
59 -136 76 -239 59z m144 -175 c95 -96 145 -415 133 -858 -10 -355 -47 -674
-90 -760 -27 -56 -57 -72 -122 -67 -113 8 -230 103 -304 247 -54 107 -89 150
-149 188 -78 50 -139 63 -342 72 -197 8 -207 10 -258 47 -48 36 -65 76 -60
143 8 114 89 228 357 502 332 341 587 513 765 517 30 1 44 -6 70 -31z m-664
-1353 c62 -22 94 -56 148 -159 53 -100 150 -212 218 -252 24 -14 44 -30 44
-35 0 -5 -14 -68 -31 -139 l-31 -130 -338 0 -338 0 -28 112 c-50 201 -39 298
59 532 l42 99 105 -6 c58 -4 126 -13 150 -22z"/>
<path d="M1156 1928 c-205 -108 -283 -261 -208 -409 81 -159 288 -185 404 -49
43 50 60 102 59 188 0 74 -18 151 -51 225 -45 101 -82 109 -204 45z m93 -182
c14 -55 14 -126 1 -160 -5 -15 -25 -33 -44 -42 -93 -45 -173 59 -114 146 23
35 127 112 139 104 4 -2 12 -24 18 -48z"/>
</g>
</svg>
