<?xml version="1.0" standalone="no"?>
<!DOCTYPE svg PUBLIC "-//W3C//DTD SVG 20010904//EN"
 "http://www.w3.org/TR/2001/REC-SVG-20010904/DTD/svg10.dtd">
<svg version="1.0" xmlns="http://www.w3.org/2000/svg"
 width="512.000000pt" height="512.000000pt" viewBox="0 0 512.000000 512.000000"
 preserveAspectRatio="xMidYMid meet">

<g transform="translate(0.000000,512.000000) scale(0.100000,-0.100000)"
fill="#000000" stroke="none">
<path d="M1560 4633 c-113 -196 -212 -365 -220 -374 -11 -13 -126 -41 -430
-105 -228 -48 -416 -88 -418 -89 -2 -2 17 -195 42 -431 44 -415 45 -429 27
-449 -10 -11 -140 -156 -290 -322 l-272 -303 272 -302 c150 -167 280 -312 290
-323 18 -20 17 -34 -27 -449 -25 -236 -44 -429 -42 -431 2 -1 190 -41 418 -89
304 -64 419 -92 430 -105 8 -9 107 -178 220 -374 177 -308 208 -357 225 -353
11 3 190 82 398 175 l377 169 390 -174 c214 -96 393 -174 397 -174 4 0 100
161 213 357 113 196 212 365 220 374 11 13 128 41 430 104 228 48 416 89 418
90 2 1 -17 195 -42 431 -44 415 -45 429 -27 449 10 11 140 156 290 323 l272
302 -272 303 c-150 166 -280 311 -290 322 -18 20 -17 34 27 449 25 236 44 430
42 431 -2 1 -190 42 -418 90 -302 63 -419 91 -430 104 -8 9 -107 178 -220 374
-113 196 -209 357 -213 357 -4 0 -183 -78 -397 -174 l-390 -174 -377 169
c-208 93 -387 172 -398 175 -17 4 -48 -45 -225 -353z m2190 -1463 l91 -98
-266 -244 -265 -243 128 -125 c70 -69 194 -190 275 -269 l148 -144 -103 -104
c-56 -57 -106 -102 -110 -101 -4 2 -104 96 -222 211 -118 114 -217 207 -220
207 -3 0 -6 -94 -6 -210 l0 -210 -150 0 -150 0 0 720 0 720 150 0 150 0 0
-190 c0 -104 2 -190 5 -190 3 0 101 88 217 195 167 154 214 192 225 184 7 -7
54 -56 103 -109z m-1642 94 c44 -8 116 -34 167 -59 155 -75 253 -173 331 -330
52 -105 74 -197 74 -315 0 -118 -22 -210 -74 -315 -78 -157 -176 -255 -331
-330 -425 -207 -924 41 -1019 507 -59 288 68 582 324 747 152 98 343 133 528
95z"/>
<path d="M1850 2964 c-203 -55 -339 -266 -301 -471 31 -170 145 -296 306 -337
200 -53 398 41 488 232 30 62 32 75 32 172 0 97 -2 110 -32 172 -90 191 -292
286 -493 232z"/>
</g>
</svg>
