<?xml version="1.0" standalone="no"?>
<!DOCTYPE svg PUBLIC "-//W3C//DTD SVG 20010904//EN"
 "http://www.w3.org/TR/2001/REC-SVG-20010904/DTD/svg10.dtd">
<svg version="1.0" xmlns="http://www.w3.org/2000/svg"
 width="512.000000pt" height="513.000000pt" viewBox="0 0 512.000000 513.000000"
 preserveAspectRatio="xMidYMid meet">

<g transform="translate(0.000000,513.000000) scale(0.100000,-0.100000)"
fill="#000000" stroke="none">
<path d="M2060 5119 c-159 -31 -293 -174 -320 -339 -6 -38 -10 -263 -10 -537
l0 -473 -79 0 c-213 0 -443 -127 -570 -315 -67 -99 -832 -1427 -864 -1501 -46
-105 -60 -185 -54 -319 3 -95 10 -137 31 -200 133 -394 549 -602 941 -470 75
25 85 22 85 -26 0 -49 48 -216 84 -295 150 -323 429 -546 778 -621 132 -28
353 -24 483 11 120 31 295 115 385 184 82 62 203 189 253 265 48 72 109 196
131 264 l17 52 257 3 c254 4 258 4 342 33 146 50 197 93 550 459 322 334 372
393 416 491 63 144 59 38 59 1590 0 1298 -1 1414 -17 1462 -37 116 -134 219
-250 266 l-53 22 -1275 2 c-706 0 -1295 -3 -1320 -8z m2585 -208 c51 -23 101
-74 117 -120 10 -29 13 -323 13 -1411 0 -756 -4 -1392 -8 -1412 l-8 -38 -263
0 c-279 0 -352 -8 -426 -45 -57 -29 -128 -104 -160 -170 -25 -49 -25 -53 -28
-372 -3 -291 -5 -322 -20 -329 -9 -4 -119 -10 -244 -12 l-228 -4 0 89 c0 81
-21 248 -36 287 -5 14 6 16 101 16 117 0 137 6 160 50 22 43 18 76 -14 112
l-29 33 -151 3 -151 4 -35 57 c-164 271 -440 462 -745 517 -95 17 -283 17
-378 0 -53 -9 -72 -9 -68 -1 2 6 69 124 148 261 210 364 232 421 232 609 0
134 -18 207 -80 333 -72 148 -220 287 -368 348 l-46 19 0 495 c0 272 4 512 9
533 14 60 57 113 114 142 l51 25 1250 0 c1190 0 1253 -1 1291 -19z m-2774
-1370 c278 -105 421 -401 326 -680 -20 -60 -374 -690 -388 -691 -11 0 -924
530 -927 539 -3 9 310 555 360 629 62 90 172 175 268 207 110 36 257 35 361
-4z m-632 -1276 c248 -143 451 -262 450 -265 0 -3 -25 -23 -55 -45 -70 -49
-179 -164 -233 -244 -85 -125 -161 -309 -177 -431 -6 -45 -11 -55 -44 -76 -50
-34 -139 -63 -218 -73 -248 -31 -477 107 -568 341 -26 65 -29 86 -29 188 0 70
6 134 14 164 19 65 386 710 401 704 4 -2 211 -120 459 -263z m951 -1171 l0
-886 -47 7 c-68 10 -205 59 -271 96 -275 155 -444 426 -459 734 -3 63 0 142 6
185 56 361 337 657 696 733 39 9 71 16 73 16 1 1 2 -398 2 -885z m335 859 c76
-19 205 -79 281 -131 281 -192 429 -544 370 -880 -50 -289 -248 -544 -512
-663 -71 -31 -206 -69 -248 -69 l-26 0 0 885 0 886 38 -7 c20 -3 64 -13 97
-21z m2014 -330 c-57 -60 -184 -191 -282 -291 l-178 -184 3 240 c3 273 4 277
88 320 42 21 56 22 259 22 l215 0 -105 -107z"/>
<path d="M2489 4201 c-57 -57 -28 -149 52 -165 18 -3 385 -6 818 -5 581 0 795
3 821 12 25 8 40 23 53 49 21 43 15 77 -20 113 l-26 25 -834 0 -835 0 -29 -29z"/>
<path d="M2489 3321 c-51 -51 -33 -137 33 -160 21 -7 229 -11 632 -11 552 0
604 1 636 18 64 31 70 117 13 162 -25 20 -41 20 -655 20 l-630 0 -29 -29z"/>
<path d="M4123 3338 c-30 -14 -56 -73 -48 -106 9 -37 42 -70 76 -77 37 -8 93
18 108 51 40 88 -49 174 -136 132z"/>
<path d="M3003 2460 c-32 -13 -57 -57 -56 -98 1 -27 9 -43 32 -64 l31 -28 585
0 585 0 31 28 c23 21 31 37 32 64 1 42 -24 85 -59 98 -32 13 -1151 12 -1181 0z"/>
</g>
</svg>
