<?xml version="1.0" encoding="iso-8859-1"?>
<!-- Generator: Adobe Illustrator 26.0.1, SVG Export Plug-In . SVG Version: 6.00 Build 0)  -->
<svg version="1.1" id="Layer_1" xmlns="http://www.w3.org/2000/svg" xmlns:xlink="http://www.w3.org/1999/xlink" x="0px" y="0px"
	 viewBox="0 0 1000 1000" style="enable-background:new 0 0 1000 1000;" xml:space="preserve">

<g>
</g>
<g>
	<path style="fill-rule:evenodd;clip-rule:evenodd;" d="M389.804,480.305l9.81-46.975h19.624c3.399,0,5.948,0.39,7.647,1.169
		c1.699,0.779,3.105,2.114,4.217,4.003c1.112,1.889,1.667,4.008,1.667,6.356c0,1.943-0.395,3.918-1.186,5.924
		c-0.791,2.007-1.79,3.661-2.997,4.964c-1.207,1.302-2.431,2.284-3.67,2.946c-1.239,0.662-2.564,1.153-3.975,1.473
		c-3.013,0.705-6.058,1.057-9.135,1.057h-11.763l-3.985,19.084H389.804L389.804,480.305z M401.157,455.886h10.354
		c4.018,0,6.967-0.432,8.847-1.296c1.881-0.864,3.387-2.181,4.519-3.952c1.132-1.771,1.698-3.648,1.698-5.632
		c0-1.536-0.299-2.79-0.898-3.76c-0.598-0.971-1.443-1.685-2.533-2.144c-1.09-0.459-3.185-0.688-6.284-0.688h-12.056
		L401.157,455.886L401.157,455.886z"/>
	<path style="fill-rule:evenodd;clip-rule:evenodd;" d="M440.491,480.305l9.81-46.975h19.681c3.883,0,6.827,0.326,8.832,0.977
		c2.005,0.651,3.579,1.874,4.72,3.668c1.141,1.794,1.712,4.057,1.712,6.791c0,3.823-1.249,6.994-3.747,9.514
		s-6.533,4.154-12.105,4.901c1.71,1.259,3.003,2.497,3.879,3.714c1.962,2.759,3.54,5.614,4.735,8.566l3.598,8.845h-7.017
		l-3.388-8.744c-1.218-3.163-2.608-5.9-4.169-8.208c-1.053-1.61-2.134-2.666-3.242-3.169c-1.108-0.502-2.908-0.754-5.401-0.754
		h-7.286l-4.359,20.874H440.491L440.491,480.305z M452.165,454.346h8.662c4.006,0,6.616-0.048,7.831-0.143
		c2.372-0.235,4.317-0.77,5.834-1.604s2.693-1.957,3.526-3.368c0.833-1.411,1.25-2.93,1.25-4.555c0-1.368-0.31-2.56-0.929-3.576
		c-0.619-1.016-1.43-1.705-2.433-2.069c-1.003-0.364-2.711-0.545-5.123-0.545h-15.305L452.165,454.346L452.165,454.346z"/>
	<path style="fill-rule:evenodd;clip-rule:evenodd;" d="M497.302,460.628c0-8.369,2.42-15.143,7.261-20.32
		c4.841-5.177,10.712-7.766,17.615-7.766c5.856,0,10.627,1.906,14.314,5.717c3.687,3.811,5.53,8.919,5.53,15.324
		c0,4.569-0.93,8.807-2.789,12.715c-1.389,2.925-3.142,5.449-5.258,7.574c-2.116,2.124-4.381,3.763-6.796,4.916
		c-3.206,1.537-6.604,2.306-10.194,2.306c-3.761,0-7.186-0.897-10.274-2.69c-3.088-1.793-5.428-4.297-7.02-7.51
		C498.098,467.679,497.302,464.258,497.302,460.628L497.302,460.628z M503.496,460.935c0,2.756,0.571,5.287,1.714,7.595
		c1.143,2.307,2.846,4.113,5.11,5.416c2.264,1.303,4.645,1.955,7.144,1.955c2.413,0,4.709-0.571,6.887-1.714
		s4.127-2.735,5.847-4.775c1.719-2.04,3.076-4.551,4.069-7.531c0.993-2.98,1.49-5.913,1.49-8.797c0-4.679-1.308-8.407-3.924-11.184
		s-5.846-4.166-9.691-4.166c-4.912,0-9.247,2.099-13.006,6.297C505.375,448.228,503.496,453.863,503.496,460.935L503.496,460.935z"
		/>
	<path style="fill-rule:evenodd;clip-rule:evenodd;" d="M551.785,480.305l9.81-46.975h15c2.731,0,4.758,0.107,6.079,0.322
		c2.159,0.364,3.982,1,5.468,1.908c1.487,0.909,2.638,2.149,3.453,3.72c0.815,1.571,1.222,3.309,1.222,5.212
		c0,2.587-0.714,4.864-2.142,6.831c-1.428,1.967-3.613,3.463-6.556,4.49c2.552,0.832,4.46,2.086,5.726,3.762
		c1.265,1.676,1.898,3.634,1.898,5.875c0,2.583-0.759,5.059-2.278,7.428c-1.519,2.369-3.529,4.2-6.031,5.491
		c-2.502,1.291-5.294,1.937-8.375,1.937H551.785L551.785,480.305z M563.652,453.415h10.007c4.784,0,8.195-0.728,10.231-2.185
		c2.036-1.457,3.055-3.578,3.055-6.363c0-1.328-0.325-2.474-0.975-3.439c-0.65-0.964-1.519-1.666-2.606-2.105
		c-1.087-0.439-3.133-0.659-6.137-0.659h-10.492L563.652,453.415L563.652,453.415z M559.152,474.97h11.097
		c2.946,0,4.929-0.096,5.947-0.288c2.06-0.341,3.732-0.922,5.017-1.743c1.285-0.821,2.293-1.903,3.024-3.247
		c0.731-1.344,1.096-2.751,1.096-4.222c0-2.197-0.706-3.866-2.117-5.007s-4.142-1.712-8.192-1.712h-12.485L559.152,474.97
		L559.152,474.97z"/>
	<polygon style="fill-rule:evenodd;clip-rule:evenodd;" points="602.15,480.305 611.961,433.329 618.213,433.329 609.518,474.97 
		633.73,474.97 632.62,480.305 602.15,480.305 	"/>
	<polygon style="fill-rule:evenodd;clip-rule:evenodd;" points="645.212,480.305 655.022,433.329 689.144,433.329 688.023,438.664 
		660.16,438.664 657.102,453.308 684.418,453.308 683.308,458.643 655.988,458.643 652.579,474.97 682.312,474.97 681.187,480.305 
		645.212,480.305 	"/>
	<path style="fill-rule:evenodd;clip-rule:evenodd;" d="M696.08,480.305l9.79-46.975h7.834l4.363,30.419
		c0.57,4.025,0.935,7.854,1.095,11.487c1.274-3.114,3.446-7.38,6.516-12.801l16.464-29.105H750l-9.855,46.975h-6.185l4.923-22.852
		c1.148-5.273,2.778-11.19,4.888-17.751c-1.382,3.044-3.057,6.33-5.026,9.858l-17.475,30.744h-6.057l-4.331-30.172
		c-0.407-2.759-0.692-5.961-0.855-9.607c-0.555,4.185-1.094,7.484-1.617,9.896l-6.208,29.883H696.08L696.08,480.305z"/>
	
</g>
</svg>
