<?xml version="1.0" standalone="no"?>
<!DOCTYPE svg PUBLIC "-//W3C//DTD SVG 20010904//EN"
 "http://www.w3.org/TR/2001/REC-SVG-20010904/DTD/svg10.dtd">
<svg version="1.0" xmlns="http://www.w3.org/2000/svg"
 width="512.000000pt" height="512.000000pt" viewBox="0 0 512.000000 512.000000"
 preserveAspectRatio="xMidYMid meet">

<g transform="translate(0.000000,512.000000) scale(0.100000,-0.100000)"
fill="#000000" stroke="none">
<path d="M473 5105 c-245 -66 -390 -310 -328 -548 47 -179 183 -305 366 -338
298 -53 573 223 519 521 -47 261 -308 432 -557 365z m175 -335 c67 -41 77
-133 20 -190 -55 -56 -147 -45 -188 22 -37 60 -22 124 39 165 42 28 86 29 129
3z"/>
<path d="M3365 5106 c-261 -61 -453 -241 -531 -501 -17 -56 -18 -144 -21
-1443 l-4 -1383 -65 -75 c-150 -173 -227 -347 -255 -574 -34 -287 69 -590 275
-807 358 -379 927 -430 1347 -121 287 210 450 579 409 924 -27 229 -105 403
-259 581 l-61 72 0 185 0 184 138 4 c126 3 140 5 171 27 79 57 90 169 24 242
-45 49 -80 59 -220 59 l-113 0 0 349 0 350 239 3 c266 3 268 4 319 78 46 68
23 169 -51 224 -27 20 -43 21 -268 24 l-239 3 0 350 0 349 328 0 c325 0 329 0
373 23 62 33 91 86 86 155 -4 56 -23 91 -71 126 -26 20 -44 21 -378 26 l-351
5 -14 55 c-16 64 -60 162 -97 217 -78 115 -222 222 -357 267 -102 34 -260 44
-354 22z m287 -350 c114 -54 187 -151 207 -276 7 -43 11 -531 11 -1448 0
-1028 3 -1389 12 -1405 6 -12 50 -60 97 -107 95 -94 140 -162 177 -269 95
-274 12 -573 -213 -761 -71 -59 -133 -93 -228 -126 -71 -25 -94 -28 -210 -28
-116 0 -139 3 -210 28 -44 15 -100 39 -125 53 -250 144 -388 417 -350 692 23
168 81 281 213 414 49 49 93 100 98 114 5 15 9 576 9 1412 0 897 4 1407 10
1442 27 139 134 255 267 289 64 16 174 5 235 -24z"/>
<path d="M3435 3586 c-37 -16 -70 -52 -84 -89 -8 -19 -11 -360 -11 -1081 l0
-1053 -25 -11 c-45 -21 -120 -100 -148 -155 -99 -194 -24 -418 171 -514 71
-36 82 -38 166 -38 81 0 98 3 158 32 198 93 279 324 182 516 -31 60 -92 127
-139 152 l-35 19 -2 1066 -3 1067 -29 37 c-47 62 -131 83 -201 52z"/>
<path d="M1621 4719 c-76 -13 -183 -52 -249 -91 -31 -18 -93 -69 -138 -113
-64 -64 -89 -98 -126 -172 -75 -150 -80 -184 -76 -594 l3 -354 29 -84 c100
-285 372 -481 671 -481 114 0 206 23 315 76 118 59 240 172 261 242 33 113
-77 229 -194 203 -42 -10 -53 -17 -119 -83 -133 -131 -341 -143 -494 -28 -28
21 -65 60 -83 87 -59 89 -62 116 -59 475 l3 323 28 57 c37 75 128 159 204 189
42 16 80 22 138 22 111 1 174 -26 266 -109 38 -36 81 -69 95 -74 89 -34 198
29 219 127 12 60 -11 112 -83 183 -162 161 -391 235 -611 199z"/>
</g>
</svg>
