<?xml version="1.0" standalone="no"?>
<!DOCTYPE svg PUBLIC "-//W3C//DTD SVG 20010904//EN"
 "http://www.w3.org/TR/2001/REC-SVG-20010904/DTD/svg10.dtd">
<svg version="1.0" xmlns="http://www.w3.org/2000/svg"
 width="512.000000pt" height="512.000000pt" viewBox="0 0 512.000000 512.000000"
 preserveAspectRatio="xMidYMid meet">

<g transform="translate(0.000000,512.000000) scale(0.100000,-0.100000)"
fill="#000000" stroke="none">
<path d="M345 4586 c-169 -54 -299 -195 -334 -364 -8 -37 -11 -443 -11 -1355
0 -1414 -2 -1354 54 -1466 34 -67 113 -149 182 -191 79 -48 168 -69 291 -69
l102 -1 3 -249 3 -249 31 -38 c46 -57 77 -76 133 -82 74 -7 118 5 160 43 23
21 103 141 201 305 l164 270 238 0 239 0 24 25 c32 31 32 69 0 100 l-24 25
-272 0 c-242 0 -275 -2 -291 -17 -10 -9 -94 -141 -185 -292 -91 -152 -173
-284 -181 -293 -18 -21 -65 -24 -80 -5 -7 8 -12 111 -14 290 -3 249 -5 278
-21 294 -15 15 -42 19 -185 23 -165 5 -169 6 -234 38 -73 36 -123 86 -160 161
l-23 46 0 1335 0 1335 26 56 c33 69 89 127 155 160 l49 24 1668 5 1669 5 24
28 c29 34 30 56 3 91 l-20 26 -1672 -1 c-1323 0 -1680 -3 -1712 -13z"/>
<path d="M3990 4580 c-32 -32 -23 -97 17 -116 10 -5 178 -11 373 -14 350 -5
356 -5 404 -29 66 -33 122 -91 155 -160 l26 -56 0 -1335 0 -1335 -23 -46 c-37
-75 -87 -125 -160 -161 l-67 -33 -1312 -3 -1312 -2 -20 -26 c-28 -35 -26 -69
4 -99 l24 -25 1298 1 c1194 0 1303 2 1364 17 173 45 316 198 349 371 15 78 14
2622 -1 2693 -30 145 -129 271 -265 335 l-79 38 -377 3 c-369 3 -378 2 -398
-18z"/>
<path d="M590 3845 c-59 -19 -113 -65 -139 -118 -26 -54 -28 -153 -5 -200 9
-18 115 -183 235 -368 l219 -336 0 -365 c0 -407 3 -427 66 -492 47 -48 86 -67
153 -73 98 -9 199 52 236 141 9 22 15 141 20 413 l8 381 220 339 c121 186 226
355 233 377 27 74 13 150 -39 217 -82 107 -247 121 -343 28 -17 -17 -94 -127
-170 -245 -77 -117 -142 -214 -145 -214 -3 0 -66 93 -140 207 -74 114 -147
223 -163 241 -58 67 -160 95 -246 67z m131 -163 c9 -9 94 -136 189 -282 95
-145 180 -270 189 -277 26 -20 59 -15 90 15 16 15 99 137 186 272 87 135 169
255 182 268 64 59 171 -13 136 -91 -6 -13 -112 -179 -237 -370 l-226 -348 0
-127 c0 -70 -3 -246 -7 -392 -6 -258 -7 -265 -29 -287 -33 -33 -78 -30 -115 6
l-29 29 0 385 0 385 -235 360 c-244 374 -257 400 -222 444 32 41 95 46 128 10z"/>
<path d="M2174 3846 c-61 -19 -110 -61 -139 -119 -24 -50 -25 -56 -25 -254 0
-190 1 -204 20 -223 30 -30 83 -27 109 6 20 25 21 40 21 214 l0 188 31 26 31
27 345 -3 345 -3 24 -28 c31 -36 31 -78 0 -114 l-24 -28 -271 -3 -270 -3 -21
-26 c-19 -24 -20 -40 -20 -258 0 -214 2 -235 19 -256 19 -24 21 -24 271 -29
250 -5 252 -5 271 -29 27 -33 25 -86 -6 -116 l-24 -25 -231 0 c-241 0 -279 -6
-294 -45 -3 -9 -6 -122 -6 -250 0 -214 2 -235 19 -256 19 -24 20 -24 296 -29
262 -5 277 -6 291 -25 35 -48 24 -113 -22 -134 -17 -7 -134 -11 -365 -11
l-340 0 -24 25 -25 24 0 440 0 440 -23 27 c-30 34 -83 36 -109 3 -17 -19 -18
-57 -18 -466 0 -309 4 -458 12 -484 16 -56 69 -113 128 -138 49 -21 59 -22
423 -19 l374 3 49 30 c158 98 147 333 -19 411 -50 23 -60 24 -274 24 l-223 0
0 140 0 140 203 0 c230 0 254 6 318 77 47 52 62 99 57 179 -4 72 -38 131 -97
171 -54 37 -96 43 -293 43 l-188 0 0 134 0 134 223 4 c255 4 281 11 345 84
104 117 70 291 -72 367 -40 21 -50 22 -401 24 -275 2 -370 -1 -401 -11z"/>
<path d="M3880 3853 c-279 -36 -499 -221 -549 -461 -52 -252 67 -481 314 -601
44 -22 156 -67 249 -101 93 -33 192 -73 219 -87 89 -49 110 -104 61 -163 -58
-68 -159 -92 -280 -67 -92 20 -160 55 -230 118 -72 65 -124 88 -195 89 -176 0
-288 -182 -208 -341 26 -52 147 -162 236 -213 208 -122 480 -166 688 -112 98
26 215 89 287 156 117 107 179 221 200 370 20 143 -33 308 -138 428 -94 108
-222 178 -489 272 -242 85 -284 116 -238 178 70 96 247 82 458 -37 79 -45 97
-51 148 -51 138 0 236 97 237 234 0 75 -27 133 -83 181 -64 55 -268 152 -377
179 -95 24 -243 38 -310 29z m175 -153 c96 -14 183 -43 292 -96 119 -59 153
-90 153 -140 0 -83 -75 -109 -159 -54 -173 110 -380 150 -518 99 -133 -51
-209 -178 -172 -290 31 -90 98 -133 354 -224 219 -78 294 -117 379 -196 81
-75 120 -142 137 -233 41 -222 -144 -457 -400 -512 -226 -48 -499 31 -674 195
-53 50 -61 63 -61 94 0 49 35 87 82 87 26 0 46 -11 90 -49 136 -117 255 -164
422 -164 131 -1 195 21 274 94 68 62 96 117 96 189 0 68 -27 126 -85 179 -58
53 -106 77 -325 155 -288 104 -370 158 -433 286 -29 59 -32 73 -32 160 0 86 3
102 31 160 39 83 83 133 157 181 115 75 242 100 392 79z"/>
</g>
</svg>
