<?xml version="1.0" standalone="no"?>
<!DOCTYPE svg PUBLIC "-//W3C//DTD SVG 20010904//EN"
 "http://www.w3.org/TR/2001/REC-SVG-20010904/DTD/svg10.dtd">
<svg version="1.0" xmlns="http://www.w3.org/2000/svg"
 width="512.000000pt" height="512.000000pt" viewBox="0 0 512.000000 512.000000"
 preserveAspectRatio="xMidYMid meet">

<g transform="translate(0.000000,512.000000) scale(0.100000,-0.100000)"
fill="#000000" stroke="none">
<path d="M1835 4229 c-293 -37 -453 -137 -756 -469 -72 -80 -198 -212 -278
-295 -169 -173 -225 -243 -286 -358 -98 -186 -108 -268 -102 -817 5 -445 8
-487 55 -620 88 -252 245 -403 659 -633 291 -161 389 -177 1138 -177 459 0
512 5 605 56 102 56 179 145 215 249 22 65 22 193 0 259 -16 47 -16 50 2 59
52 29 136 125 170 195 32 64 37 85 41 160 3 68 -1 101 -17 152 l-21 65 23 15
c12 8 48 39 80 69 101 95 148 234 126 370 -5 36 -12 68 -15 72 -2 4 179 9 403
11 449 5 468 7 585 70 105 56 201 192 229 325 17 87 7 204 -26 287 -57 139
-201 252 -355 276 -39 6 -341 10 -761 10 l-696 0 -7 78 c-16 190 -63 299 -182
418 -64 65 -97 90 -165 122 -46 22 -111 45 -143 51 -70 13 -420 12 -521 0z
m526 -330 c62 -29 119 -83 144 -135 16 -34 35 -127 35 -171 l0 -23 -252 0
c-227 0 -257 -2 -295 -19 -104 -47 -112 -213 -14 -278 l34 -23 1116 0 c1064 0
1118 -1 1156 -19 122 -56 142 -207 36 -273 l-36 -23 -842 -5 c-830 -5 -842 -5
-869 -26 -73 -54 -93 -136 -52 -214 38 -74 59 -80 290 -80 233 0 289 -9 335
-55 29 -29 33 -39 33 -88 0 -60 -23 -100 -69 -120 -15 -7 -123 -13 -268 -17
-224 -5 -244 -7 -269 -26 -73 -54 -93 -136 -52 -214 35 -68 67 -80 218 -80 69
0 142 -5 162 -10 52 -15 88 -61 88 -113 0 -59 -18 -89 -70 -114 -39 -20 -59
-23 -176 -23 -120 0 -134 -2 -165 -23 -98 -65 -90 -231 14 -278 23 -10 57 -19
75 -19 100 0 158 -116 96 -189 -14 -17 -42 -36 -62 -42 -26 -7 -198 -9 -562
-6 -583 4 -599 6 -739 72 -138 66 -330 176 -409 234 -125 93 -197 193 -240
334 -13 43 -16 131 -19 495 -5 485 -4 491 57 612 43 85 90 142 311 377 427
456 477 502 607 560 101 45 160 52 387 50 203 -2 212 -3 266 -28z"/>
</g>
</svg>
